<svg xmlns="http://www.w3.org/2000/svg" xmlns:xlink="http://www.w3.org/1999/xlink">
    <symbol id="mds__action__alarm" viewBox="0 0 24 24">
        <path
            d="M22 5.72l-4.6-3.86-1.29 1.53 4.6 3.86L22 5.72zM7.88 3.39L6.6 1.86 2 5.71l1.29 1.53 4.59-3.85zM12.5 8H11v6l4.75 2.85.75-1.23-4-2.37V8zM12 4c-4.97 0-9 4.03-9 9s4.02 9 9 9c4.97 0 9-4.03 9-9s-4.03-9-9-9zm0 16c-3.87 0-7-3.13-7-7s3.13-7 7-7 7 3.13 7 7-3.13 7-7 7z" />
    </symbol>
    <symbol id="mds__av__album" viewBox="0 0 24 24">
        <path
            d="M12 2C6.48 2 2 6.48 2 12s4.48 10 10 10 10-4.48 10-10S17.52 2 12 2zm0 14.5c-2.49 0-4.5-2.01-4.5-4.5S9.51 7.5 12 7.5s4.5 2.01 4.5 4.5-2.01 4.5-4.5 4.5zm0-5.5c-.55 0-1 .45-1 1s.45 1 1 1 1-.45 1-1-.45-1-1-1z" />
    </symbol>
    <symbol id="faf__solid__ad" viewBox="0 0 512 512">
        <path
            d="M157.52 272h36.96L176 218.78 157.52 272zM352 256c-13.23 0-24 10.77-24 24s10.77 24 24 24 24-10.77 24-24-10.77-24-24-24zM464 64H48C21.5 64 0 85.5 0 112v288c0 26.5 21.5 48 48 48h416c26.5 0 48-21.5 48-48V112c0-26.5-21.5-48-48-48zM250.58 352h-16.94c-6.81 0-12.88-4.32-15.12-10.75L211.15 320h-70.29l-7.38 21.25A16 16 0 0 1 118.36 352h-16.94c-11.01 0-18.73-10.85-15.12-21.25L140 176.12A23.995 23.995 0 0 1 162.67 160h26.66A23.99 23.99 0 0 1 212 176.13l53.69 154.62c3.61 10.4-4.11 21.25-15.11 21.25zM424 336c0 8.84-7.16 16-16 16h-16c-4.85 0-9.04-2.27-11.98-5.68-8.62 3.66-18.09 5.68-28.02 5.68-39.7 0-72-32.3-72-72s32.3-72 72-72c8.46 0 16.46 1.73 24 4.42V176c0-8.84 7.16-16 16-16h16c8.84 0 16 7.16 16 16v160z" />
    </symbol>
    <symbol id="faf__regular__angry" viewBox="0 0 496 512">
        <path
            d="M248 8C111 8 0 119 0 256s111 248 248 248 248-111 248-248S385 8 248 8zm0 448c-110.3 0-200-89.7-200-200S137.7 56 248 56s200 89.7 200 200-89.7 200-200 200zm0-144c-33.6 0-65.2 14.8-86.8 40.6-8.5 10.2-7.1 25.3 3.1 33.8s25.3 7.2 33.8-3c24.8-29.7 75-29.7 99.8 0 8.1 9.7 23.2 11.9 33.8 3 10.2-8.5 11.5-23.6 3.1-33.8-21.6-25.8-53.2-40.6-86.8-40.6zm-48-72c10.3 0 19.9-6.7 23-17.1 3.8-12.7-3.4-26.1-16.1-29.9l-80-24c-12.8-3.9-26.1 3.4-29.9 16.1-3.8 12.7 3.4 26.1 16.1 29.9l28.2 8.5c-3.1 4.9-5.3 10.4-5.3 16.6 0 17.7 14.3 32 32 32s32-14.4 32-32.1zm199-54.9c-3.8-12.7-17.1-19.9-29.9-16.1l-80 24c-12.7 3.8-19.9 17.2-16.1 29.9 3.1 10.4 12.7 17.1 23 17.1 0 17.7 14.3 32 32 32s32-14.3 32-32c0-6.2-2.2-11.7-5.3-16.6l28.2-8.5c12.7-3.7 19.9-17.1 16.1-29.8z" />
    </symbol>
</svg>
